<?xml version="1.0" encoding="UTF-8"?>
<svg version="1.1" xmlns="http://www.w3.org/2000/svg" width="252" height="322">
<path d="M0 0 C3.307844 0.32624852 4.1901524 1.15682886 6.509552 3.48855019 C7.59444916 4.56096962 7.59444916 4.56096962 8.70126343 5.65505409 C9.47959534 6.44979134 10.25792725 7.24452858 11.05984497 8.06334877 C11.89135071 8.89251808 12.72285645 9.72168739 13.57955933 10.57598305 C15.85738438 12.85246917 18.12369231 15.13971371 20.38524628 17.43234491 C22.75784766 19.8325171 25.1442496 22.21889021 27.52908325 24.60689735 C31.5352632 28.62228353 35.53216204 32.64671255 39.5227356 36.67760658 C45.13725667 42.34880698 50.76882828 48.0028361 56.40367508 53.65383077 C60.31702671 57.57967453 64.22628707 61.50959162 68.134758 65.44029379 C69.07933854 66.39022388 70.02402538 67.34004828 70.96881866 68.28976679 C74.08120836 71.4187541 77.18882855 74.5524172 80.29421997 77.68834877 C81.07255188 78.47094063 81.85088379 79.25353249 82.65280151 80.05983925 C86.53693169 83.99015628 90.18677103 87.98172907 93.67703247 92.26403236 C94.99887382 93.48741254 96.35025401 94.68030858 97.73953247 95.82653236 C107.47853613 104.19513213 111.72269857 114.63073061 112.86599731 127.36950111 C114.37058269 151.92085821 104.18914636 168.20534644 88.67703247 186.26403236 C89.38666138 186.93438515 89.38666138 186.93438515 90.11062622 187.61828041 C103.61897851 200.4765597 117.98737153 214.86517026 118.82229614 234.71813393 C118.84253722 238.22745829 118.86271575 241.7365835 118.86233521 245.24596596 C118.86451216 247.49306899 118.88266617 249.73967288 118.90164185 251.98668861 C118.94708595 262.79172003 117.99736514 271.58788111 112.98953247 281.26403236 C112.63721558 281.95609779 112.28489868 282.64816322 111.92190552 283.36120033 C109.06385595 288.8286062 105.73875479 293.61351 101.67703247 298.26403236 C100.80133579 299.34680262 99.92627153 300.43008487 99.05203247 301.51403236 C96.69798319 304.23977364 94.32962061 306.82651894 91.67703247 309.26403236 C91.01703247 309.26403236 90.35703247 309.26403236 89.67703247 309.26403236 C89.01703247 310.58403236 88.35703247 311.90403236 87.67703247 313.26403236 C87.01703247 313.26403236 86.35703247 313.26403236 85.67703247 313.26403236 C85.01703247 314.58403236 84.35703247 315.90403236 83.67703247 317.26403236 C83.01703247 317.26403236 82.35703247 317.26403236 81.67703247 317.26403236 C81.38828247 317.90340736 81.09953247 318.54278236 80.80203247 319.20153236 C79.67703247 321.26403236 79.67703247 321.26403236 77.67703247 322.26403236 C72.30094928 322.72157136 72.30094928 322.72157136 69.80203247 320.88903236 C68.67703247 319.26403236 68.67703247 319.26403236 68.67703247 317.26403236 C67.35703247 316.60403236 66.03703247 315.94403236 64.67703247 315.26403236 C64.67703247 314.60403236 64.67703247 313.94403236 64.67703247 313.26403236 C63.35703247 312.60403236 62.03703247 311.94403236 60.67703247 311.26403236 C60.67703247 310.60403236 60.67703247 309.94403236 60.67703247 309.26403236 C59.35703247 308.60403236 58.03703247 307.94403236 56.67703247 307.26403236 C56.67703247 306.60403236 56.67703247 305.94403236 56.67703247 305.26403236 C55.35703247 304.60403236 54.03703247 303.94403236 52.67703247 303.26403236 C52.67703247 302.60403236 52.67703247 301.94403236 52.67703247 301.26403236 C51.35703247 300.60403236 50.03703247 299.94403236 48.67703247 299.26403236 C48.67703247 298.60403236 48.67703247 297.94403236 48.67703247 297.26403236 C47.35703247 296.60403236 46.03703247 295.94403236 44.67703247 295.26403236 C44.67703247 294.60403236 44.67703247 293.94403236 44.67703247 293.26403236 C43.35703247 292.60403236 42.03703247 291.94403236 40.67703247 291.26403236 C40.67703247 290.60403236 40.67703247 289.94403236 40.67703247 289.26403236 C39.35703247 288.60403236 38.03703247 287.94403236 36.67703247 287.26403236 C36.67703247 286.60403236 36.67703247 285.94403236 36.67703247 285.26403236 C35.35703247 284.60403236 34.03703247 283.94403236 32.67703247 283.26403236 C32.67703247 282.60403236 32.67703247 281.94403236 32.67703247 281.26403236 C31.35703247 280.60403236 30.03703247 279.94403236 28.67703247 279.26403236 C28.67703247 278.60403236 28.67703247 277.94403236 28.67703247 277.26403236 C27.35703247 276.60403236 26.03703247 275.94403236 24.67703247 275.26403236 C24.67703247 274.60403236 24.67703247 273.94403236 24.67703247 273.26403236 C23.35703247 272.60403236 22.03703247 271.94403236 20.67703247 271.26403236 C20.67703247 270.60403236 20.67703247 269.94403236 20.67703247 269.26403236 C19.35703247 268.60403236 18.03703247 267.94403236 16.67703247 267.26403236 C16.67703247 266.60403236 16.67703247 265.94403236 16.67703247 265.26403236 C15.35703247 264.60403236 14.03703247 263.94403236 12.67703247 263.26403236 C12.67703247 262.60403236 12.67703247 261.94403236 12.67703247 261.26403236 C11.35703247 260.60403236 10.03703247 259.94403236 8.67703247 259.26403236 C8.67703247 258.60403236 8.67703247 257.94403236 8.67703247 257.26403236 C7.35703247 256.60403236 6.03703247 255.94403236 4.67703247 255.26403236 C4.67703247 254.60403236 4.67703247 253.94403236 4.67703247 253.26403236 C3.35703247 252.60403236 2.03703247 251.94403236 0.67703247 251.26403236 C0.67703247 250.60403236 0.67703247 249.94403236 0.67703247 249.26403236 C-0.31296753 248.93403236 -1.30296753 248.60403236 -2.32296753 248.26403236 C-2.47317465 216.81473867 -2.61827958 185.36542668 -2.75621513 153.91607693 C-2.77248703 150.20711074 -2.78880264 146.49814473 -2.80514526 142.78917885 C-2.80839819 142.05075931 -2.81165111 141.31233977 -2.81500261 140.55154388 C-2.86784716 128.57943184 -2.92423672 116.60733896 -2.98192573 104.63524938 C-3.04099736 92.35993515 -3.09628412 80.08460813 -3.14802307 67.80926079 C-3.18009482 60.22861309 -3.21515416 52.6479911 -3.25397944 45.06737494 C-3.28338498 39.2643644 -3.3075365 33.46133966 -3.32967377 27.65829659 C-3.33961856 25.27051126 -3.35130149 22.88273249 -3.36479759 20.4949646 C-3.38288379 17.25042958 -3.39487957 14.00592951 -3.40525818 10.76136208 C-3.41206197 9.80321069 -3.41886576 8.8450593 -3.42587572 7.85787302 C-3.42967968 5.65966177 -3.38227339 3.46144676 -3.32296753 1.26403236 C-2.32296753 0.26403236 -2.32296753 0.26403236 0 0 Z M33.67703247 85.26403236 C33.49879811 91.668229 33.37665019 98.07178103 33.29251099 104.47789955 C33.25741897 106.65457496 33.20973142 108.83108667 33.1489563 111.00719643 C33.06354122 114.1453033 33.02423133 117.28122075 32.99343872 120.42028236 C32.95730972 121.38518593 32.92118073 122.35008949 32.88395691 123.34423256 C32.88095084 128.5769614 33.44477579 131.61178529 36.91726685 135.63317299 C38.14954265 136.86481347 39.40144163 138.07731001 40.67703247 139.26403236 C41.51484253 140.1393058 42.35265259 141.01457924 43.21585083 141.91637611 C43.97518921 142.67047768 44.73452759 143.42457924 45.51687622 144.20153236 C46.35154419 145.03297768 47.18621216 145.86442299 48.0461731 146.72106361 C48.89373169 147.5602433 49.74129028 148.39942299 50.61453247 149.26403236 C51.48916138 150.13414955 52.36379028 151.00426674 53.2649231 151.90075111 C55.40000697 154.02416786 57.53740453 156.14519614 59.67703247 158.26403236 C63.07092627 156.97019495 65.45013793 155.88872956 67.98953247 153.26403236 C68.75716919 152.49059486 68.75716919 152.49059486 69.54031372 151.70153236 C70.88378783 150.30800701 70.88378783 150.30800701 70.67703247 148.26403236 C71.33703247 148.26403236 71.99703247 148.26403236 72.67703247 148.26403236 C75.60246433 141.21165198 77.37983748 133.76869761 75.05593872 126.25621986 C73.41879761 123.01104237 71.23649322 120.78859536 68.45437622 118.49450111 C61.50608828 112.51015578 55.18615538 105.83929871 48.73953247 99.32653236 C46.10825186 96.66875282 43.47373054 94.01424781 40.83718872 91.36168861 C40.23310684 90.7493084 39.62902496 90.13692818 39.00663757 89.50599098 C37.58221639 88.07308748 36.13227645 86.66562185 34.67703247 85.26403236 C34.34703247 85.26403236 34.01703247 85.26403236 33.67703247 85.26403236 Z M34.67703247 185.26403236 C34.55015411 191.8657928 34.4626487 198.46723836 34.40237427 205.06994057 C34.37724524 207.3155028 34.34313632 209.56098336 34.29983521 211.80626869 C34.23911471 215.03588454 34.21080616 218.2644182 34.18875122 221.49450111 C34.16294479 222.49676231 34.13713837 223.49902351 34.11054993 224.53165627 C34.08440859 230.39629336 34.08440859 230.39629336 37.11038208 235.32409096 C37.95737671 235.96427162 38.80437134 236.60445229 39.67703247 237.26403236 C40.65077337 238.3968013 41.61143726 239.54109389 42.55203247 240.70153236 C45.13197145 243.76562442 47.9416205 246.25582599 51.02468872 248.79918861 C53.53785876 251.02717624 55.52966352 253.68718962 57.67703247 256.26403236 C58.82549471 257.28488769 59.99325169 258.28435172 61.17703247 259.26403236 C64.47381743 261.99585851 66.99540026 264.93011123 69.67703247 268.26403236 C71.73870508 270.57821528 71.73870508 270.57821528 73.67703247 272.26403236 C74.33703247 272.26403236 74.99703247 272.26403236 75.67703247 272.26403236 C81.91441064 265.07972549 84.32298296 255.06199883 83.95437622 245.72887611 C82.07412829 229.01850369 68.87980824 216.7397767 56.43093872 206.56481361 C54.20987767 204.70920374 52.45955699 203.01340854 50.67703247 200.76403236 C48.75458404 198.44107385 47.02914727 196.72412803 44.67703247 194.76403236 C41.67250446 192.26025902 39.33129083 189.64158399 36.87625122 186.61950111 C36.48050903 186.17219643 36.08476685 185.72489174 35.67703247 185.26403236 C35.34703247 185.26403236 35.01703247 185.26403236 34.67703247 185.26403236 Z " fill="#000000" transform="translate(133.32296752929688,-0.26403236389160156)"/>
<path d="M0 0 C0.15967435 31.49153866 0.28356025 62.98296221 0.35745731 94.47481105 C0.3662123 98.19235517 0.37527255 101.90989849 0.38452148 105.62744141 C0.38635766 106.36754001 0.38819383 107.10763861 0.39008565 107.87016444 C0.42054832 119.85517587 0.47574204 131.83995237 0.54006957 143.82482441 C0.60552112 156.12163366 0.64440946 168.41831985 0.65861946 180.71529615 C0.66822644 188.30387708 0.69857181 195.891794 0.75541527 203.48017053 C0.79677765 209.29810891 0.8011887 215.11570614 0.79175377 220.93379593 C0.79368238 223.32112723 0.80764445 225.70848326 0.83443832 228.09566498 C0.86920583 231.35251782 0.86091959 234.60651669 0.84178162 237.86343384 C0.86217151 238.81091197 0.8825614 239.7583901 0.90356916 240.73457968 C0.803458 247.02560813 0.803458 247.02560813 -1.52678668 249.85160708 C-3.39636135 251.44603539 -3.39636135 251.44603539 -5.25420326 252.7508949 C-7.30027835 254.10387498 -7.30027835 254.10387498 -9.5 257 C-11.44681821 259.33618185 -13.13044709 261.03430755 -15.4375 262.9375 C-18.51705286 265.48379696 -20.98534693 268.25432214 -23.51953125 271.33203125 C-24.99407842 272.99332846 -26.52275878 274.35733335 -28.25 275.75 C-31.13659999 277.88779286 -31.13659999 277.88779286 -33 281 C-33.66 281 -34.32 281 -35 281 C-35.66 282.32 -36.32 283.64 -37 285 C-37.66 285 -38.32 285 -39 285 C-39.66 286.32 -40.32 287.64 -41 289 C-41.66 289 -42.32 289 -43 289 C-43.66 290.32 -44.32 291.64 -45 293 C-45.66 293 -46.32 293 -47 293 C-47.66 294.32 -48.32 295.64 -49 297 C-49.66 297 -50.32 297 -51 297 C-51.66 298.32 -52.32 299.64 -53 301 C-53.66 301 -54.32 301 -55 301 C-55.33 301.99 -55.66 302.98 -56 304 C-57.453125 305.39453125 -57.453125 305.39453125 -59.25 306.8125 C-61.65808805 308.7947676 -63.47811472 310.57373766 -65.5 313 C-67.43419596 315.32103516 -69.28672765 317.34298702 -71.5 319.375 C-72.31984375 320.12910156 -72.31984375 320.12910156 -73.15625 320.8984375 C-75.65918721 322.39383643 -77.12598871 322.42251927 -80 322 C-82.23828125 320.5390625 -82.23828125 320.5390625 -84.3125 318.625 C-85.00988281 317.99851562 -85.70726562 317.37203125 -86.42578125 316.7265625 C-88 315 -88 315 -88 313 C-89.32 312.34 -90.64 311.68 -92 311 C-92 310.34 -92 309.68 -92 309 C-93.32 308.34 -94.64 307.68 -96 307 C-96 306.34 -96 305.68 -96 305 C-96.99 304.67 -97.98 304.34 -99 304 C-112.43947489 290.95101833 -121.73729312 273.77008051 -122.30078125 254.85546875 C-122.3152394 252.63285609 -122.31894994 250.41015032 -122.3125 248.1875 C-122.32861328 247.08857422 -122.34472656 245.98964844 -122.36132812 244.85742188 C-122.37364632 223.95344545 -113.18069742 208.21355475 -98.80322266 193.67797852 C-96.22237785 191.09748313 -93.61631146 188.54452243 -91 186 C-94.87553051 181.45396089 -94.87553051 181.45396089 -98.81640625 176.96484375 C-112.05714621 162.122632 -116.26760037 146.02821935 -115.21142578 126.38867188 C-113.82671048 110.74426713 -105.58534886 98.95734232 -94 89 C-93.34 89 -92.68 89 -92 89 C-91.61123294 88.1247146 -91.61123294 88.1247146 -91.21461201 87.23174667 C-89.90759011 84.83020465 -88.48974387 83.23005273 -86.56620789 81.29205322 C-85.85548126 80.57135147 -85.14475464 79.85064972 -84.41249084 79.10810852 C-83.63272385 78.32767685 -82.85295685 77.54724518 -82.04956055 76.74316406 C-81.22824646 75.91352646 -80.40693237 75.08388885 -79.56072998 74.22911072 C-76.84152629 71.48579153 -74.11470318 68.75021104 -71.38671875 66.015625 C-69.97354682 64.59575485 -68.56037598 63.17588361 -67.1473735 61.75584483 C-62.70592689 57.29294227 -58.25844538 52.83611269 -53.80786133 48.38232422 C-49.21644678 43.78726991 -44.63834473 39.17923628 -40.06607789 34.56513619 C-36.13854161 30.60293039 -32.20146276 26.65037784 -28.25690299 22.70511985 C-25.90164372 20.34906699 -23.55176417 17.98805199 -21.2091732 15.6193924 C-18.59728329 12.98075523 -15.97017906 10.35826138 -13.33862305 7.73925781 C-12.17808159 6.55646492 -12.17808159 6.55646492 -10.99409485 5.34977722 C-10.27490875 4.64035477 -9.55572266 3.93093231 -8.81474304 3.20001221 C-8.19513041 2.57838825 -7.57551779 1.9567643 -6.93712902 1.31630325 C-4.48920826 -0.34708934 -2.89903705 -0.25637386 0 0 Z M-43.24609375 90.69921875 C-43.7802037 91.19169601 -44.31431366 91.68417328 -44.86460876 92.1915741 C-50.49269875 97.41081746 -55.9846374 102.76398697 -61.42163086 108.18139648 C-63.08596302 109.83582338 -64.76069511 111.47927833 -66.43554688 113.12304688 C-67.51106857 114.19205286 -68.58596257 115.26169081 -69.66015625 116.33203125 C-70.15387222 116.81340042 -70.6475882 117.29476959 -71.15626526 117.79072571 C-76.17487442 122.84196626 -78.63166675 127.87889059 -79 135 C-77.87569533 142.93173841 -74.59197346 148.82070083 -68.8125 154.375 C-67.91144531 155.24898438 -67.01039062 156.12296875 -66.08203125 157.0234375 C-65.05142578 158.00183594 -65.05142578 158.00183594 -64 159 C-63.07058594 158.195625 -62.14117187 157.39125 -61.18359375 156.5625 C-58.97853056 154.6557787 -56.75518004 152.80958969 -54.45361328 151.01953125 C-42.17988301 141.58787621 -42.17988301 141.58787621 -35.02001953 128.34521484 C-34.16989598 120.62923795 -34.7290514 113.05516091 -35.61425781 105.36376953 C-36.04067975 101.64526226 -36.24366961 97.95134507 -36.40380859 94.21411133 C-36.5301799 91.46954462 -36.75522176 88.73627104 -37 86 C-39.26215465 86 -41.60022917 89.17596234 -43.24609375 90.69921875 Z M-41.79785156 188.60498047 C-42.6024884 189.39355438 -43.40712524 190.1821283 -44.23614502 190.99459839 C-47.93416961 194.64819499 -51.63074632 198.30317579 -55.31787109 201.96777344 C-57.25854103 203.8951871 -59.20615805 205.81511568 -61.16064453 207.72851562 C-63.98088748 210.48947319 -66.78006678 213.27124129 -69.578125 216.0546875 C-70.44600647 216.8998996 -71.31388794 217.74511169 -72.20806885 218.61593628 C-80.29684649 226.73292247 -85.87051307 236.03734634 -86.3125 247.75 C-86.06418991 257.36106102 -83.37035162 264.8050074 -77 272 C-73.96584337 269.76900248 -71.45305631 267.45135168 -69.0625 264.5625 C-66.33656175 261.27882503 -63.28121555 258.73434629 -60 256 C-58.97914468 254.85153776 -57.97968065 253.68378078 -57 252.5 C-54.29852543 249.23571822 -51.25777945 246.71481621 -48 244 C-46.47348332 242.32199693 -45.02142433 240.60314179 -43.58984375 238.84375 C-42 237 -42 237 -39.43115234 235.05786133 C-35.87180709 230.58097848 -36.3686144 226.78830656 -36.51171875 221.23046875 C-36.52233086 219.67625969 -36.52233086 219.67625969 -36.53315735 218.09065247 C-36.56109393 214.78886003 -36.6238337 211.48877784 -36.6875 208.1875 C-36.7125837 205.94598807 -36.73539674 203.7044495 -36.75585938 201.46289062 C-36.81091794 195.9746792 -36.89453719 190.48746179 -37 185 C-38.96856082 185 -40.49580121 187.32647937 -41.79785156 188.60498047 Z " fill="#000000" transform="translate(122,0)"/>
</svg>
